<svg width="39" height="55" viewBox="0 0 39 55" fill="none" xmlns="http://www.w3.org/2000/svg">
<g clip-path="url(#clip0_294_98)">
<path fill-rule="evenodd" clip-rule="evenodd" d="M13.6502 1.96421C13.6502 5.21707 16.271 7.85707 19.5002 7.85707C22.7294 7.85707 25.3502 5.21707 25.3502 1.96421L33.1502 1.96421C35.3049 1.96421 37.0502 3.72225 37.0502 5.89279C37.0502 15.4058 37.0502 39.594 37.0502 49.1071C37.0502 51.2776 35.3049 53.0356 33.1502 53.0356C29.7474 53.0356 25.3502 53.0356 25.3502 53.0356C25.3502 49.7828 22.7294 47.1428 19.5002 47.1428C16.271 47.1428 13.6502 49.7828 13.6502 53.0356L5.8502 53.0356C3.69545 53.0356 1.9502 51.2776 1.9502 49.1071C1.95019 39.594 1.95019 15.4058 1.95019 5.89279C1.95019 3.72225 3.69544 1.96421 5.85019 1.96421C9.25294 1.96421 13.6502 1.96421 13.6502 1.96421Z" fill="#90E0EF"/>
<path fill-rule="evenodd" clip-rule="evenodd" d="M39 49.1071C39 52.362 36.3811 55 33.15 55L25.35 55C24.2736 55 23.4 54.12 23.4 53.0357C23.4 50.8671 21.6528 49.1071 19.5 49.1071C17.3472 49.1071 15.6 50.8671 15.6 53.0357C15.6 54.12 14.7264 55 13.65 55L5.85 55C2.61885 55 -1.15312e-07 52.362 -2.57585e-07 49.1071L-2.14654e-06 5.89286C-2.28881e-06 2.63803 2.61885 -1.14474e-07 5.85 -2.55712e-07L13.65 -5.9666e-07C14.7264 -6.43711e-07 15.6 0.88 15.6 1.96429C15.6 4.13286 17.3472 5.89286 19.5 5.89286C21.6528 5.89286 23.4 4.13286 23.4 1.96429C23.4 0.88 24.2736 -1.06103e-06 25.35 -1.10808e-06L33.15 -1.44903e-06C36.3811 -1.59027e-06 39 2.63803 39 5.89285L39 49.1071ZM35.1 49.1071L35.1 5.89286C35.1 4.80857 34.2264 3.92857 33.15 3.92857L27.0543 3.92857C26.1865 7.315 23.1328 9.82143 19.5 9.82143C15.8671 9.82143 12.8135 7.315 11.9457 3.92857L5.85 3.92857C4.7736 3.92857 3.9 4.80857 3.9 5.89286L3.9 49.1071C3.9 50.1914 4.7736 51.0714 5.85 51.0714L11.9457 51.0714C12.8135 47.685 15.8671 45.1786 19.5 45.1786C23.1329 45.1786 26.1865 47.685 27.0543 51.0714L33.15 51.0714C34.2264 51.0714 35.1 50.1914 35.1 49.1071ZM29.25 19.6429L31.2 19.6429C32.2764 19.6429 33.15 18.7629 33.15 17.6786C33.15 16.5943 32.2764 15.7143 31.2 15.7143L29.25 15.7143C28.1736 15.7143 27.3 16.5943 27.3 17.6786C27.3 18.7629 28.1736 19.6429 29.25 19.6429ZM23.4 27.5C23.4 26.4157 24.2736 25.5357 25.35 25.5357C26.4264 25.5357 27.3 26.4157 27.3 27.5C27.3 28.5843 26.4264 29.4643 25.35 29.4643C24.2736 29.4643 23.4 28.5843 23.4 27.5ZM26.7287 37.897L15.0287 26.1112C14.2682 25.3452 13.0318 25.3452 12.2713 26.1112C11.5108 26.8773 11.5108 28.1227 12.2713 28.8888L23.9713 40.6745C24.7318 41.4405 25.9682 41.4405 26.7287 40.6745C27.4892 39.9084 27.4892 38.663 26.7287 37.897ZM17.55 19.6429L21.45 19.6429C22.5264 19.6429 23.4 18.7629 23.4 17.6786C23.4 16.5943 22.5264 15.7143 21.45 15.7143L17.55 15.7143C16.4736 15.7143 15.6 16.5943 15.6 17.6786C15.6 18.7629 16.4736 19.6429 17.55 19.6429ZM11.7 39.2857C11.7 38.2014 12.5736 37.3214 13.65 37.3214C14.7264 37.3214 15.6 38.2014 15.6 39.2857C15.6 40.37 14.7264 41.25 13.65 41.25C12.5736 41.25 11.7 40.37 11.7 39.2857ZM7.8 19.6429L9.75 19.6429C10.8264 19.6429 11.7 18.7629 11.7 17.6786C11.7 16.5943 10.8264 15.7143 9.75 15.7143L7.8 15.7143C6.7236 15.7143 5.85 16.5943 5.85 17.6786C5.85 18.7629 6.7236 19.6429 7.8 19.6429Z" fill="#1990A7"/>
</g>
<defs>
<clipPath id="clip0_294_98">
<rect width="55" height="39" fill="white" transform="translate(0 55) rotate(-90)"/>
</clipPath>
</defs>
</svg>
